<svg width="11" height="22" viewBox="0 0 11 22" fill="none" xmlns="http://www.w3.org/2000/svg">
<g clip-path="url(#clip0_292_124)">
<path fill-rule="evenodd" clip-rule="evenodd" d="M2.38333 11.0917V21.725C2.38333 21.9083 2.475 22 2.65833 22H6.875C7.05833 22 7.15 21.9083 7.15 21.725V10.9083H10.2667C10.45 10.9083 10.5417 10.8167 10.5417 10.6333L10.8167 7.33333C10.8167 7.15 10.725 7.05833 10.5417 7.05833H7.15V4.76667C7.15 4.21667 7.60833 3.75833 8.25 3.75833H10.6333C10.9083 3.75833 11 3.66667 11 3.48333V0.275C11 0.0916668 10.9083 0 10.725 0H6.69167C4.30833 0 2.38333 1.74167 2.38333 3.94167V7.05833H0.275C0.0916668 7.05833 0 7.15 0 7.33333V10.6333C0 10.8167 0.0916668 10.9083 0.275 10.9083H2.38333V11.0917Z" fill="#4267B2"/>
</g>
<defs>
<clipPath id="clip0_292_124">
<rect width="11" height="22" fill="white"/>
</clipPath>
</defs>
</svg>
