<svg width="22" height="22" viewBox="0 0 22 22" fill="none" xmlns="http://www.w3.org/2000/svg">
<g clip-path="url(#clip0_292_127)">
<path d="M7.33392 11C7.33392 8.97503 8.97503 7.33304 11 7.33304C13.025 7.33304 14.667 8.97503 14.667 11C14.667 13.025 13.025 14.667 11 14.667C8.97503 14.667 7.33392 13.025 7.33392 11ZM5.35163 11C5.35163 14.1196 7.8804 16.6484 11 16.6484C14.1196 16.6484 16.6484 14.1196 16.6484 11C16.6484 7.8804 14.1196 5.35163 11 5.35163C7.8804 5.35163 5.35172 7.88022 5.35172 11M15.5521 5.12767C15.552 5.38874 15.6293 5.64398 15.7742 5.86111C15.9192 6.07824 16.1253 6.24751 16.3664 6.34752C16.6076 6.44752 16.873 6.47377 17.1291 6.42294C17.3851 6.37211 17.6204 6.24649 17.8051 6.06195C17.9897 5.87742 18.1156 5.64227 18.1666 5.38624C18.2176 5.1302 18.1916 4.86478 18.0918 4.62355C17.992 4.38231 17.8229 4.17608 17.6059 4.03095C17.3888 3.88582 17.1337 3.8083 16.8726 3.8082H16.8721C16.5221 3.80836 16.1865 3.94741 15.9391 4.19481C15.6916 4.44221 15.5524 4.77773 15.5521 5.12767ZM6.556 19.9538C5.48354 19.905 4.90063 19.7263 4.51326 19.5754C3.99969 19.3755 3.63326 19.1374 3.24799 18.7526C2.86273 18.3679 2.62425 18.0018 2.42519 17.4882C2.27418 17.101 2.09554 16.518 2.04679 15.4455C1.99346 14.286 1.98282 13.9377 1.98282 11.0002C1.98282 8.06265 1.99434 7.71531 2.04679 6.55486C2.09563 5.4824 2.27559 4.90046 2.42519 4.51211C2.62513 3.99854 2.86326 3.63211 3.24799 3.24685C3.63273 2.86158 3.99881 2.6231 4.51326 2.42405C4.90046 2.27304 5.48354 2.0944 6.556 2.04565C7.71549 1.99232 8.06379 1.98167 11 1.98167C13.9362 1.98167 14.2849 1.99302 15.4453 2.04582C16.5178 2.09466 17.0997 2.27462 17.4881 2.42422C18.0016 2.62328 18.3681 2.86229 18.7533 3.24702C19.1386 3.63176 19.3762 3.99872 19.5761 4.51229C19.7271 4.89949 19.9058 5.48258 19.9545 6.55503C20.0079 7.71549 20.0185 8.06282 20.0185 11.0004C20.0185 13.9379 20.0079 14.2852 19.9545 15.4457C19.9057 16.5181 19.7262 17.101 19.5761 17.4884C19.3762 18.002 19.1381 18.3684 18.7533 18.7528C18.3686 19.1372 18.0016 19.3757 17.4881 19.5756C17.1009 19.7266 16.5178 19.9052 15.4453 19.954C14.2858 20.0073 13.9375 20.018 11 20.018C8.06247 20.018 7.71514 20.0073 6.556 19.954M6.46492 0.0666161C5.2939 0.119944 4.49372 0.305624 3.79491 0.577544C3.07164 0.858352 2.45854 1.23508 1.84633 1.84633C1.23411 2.45758 0.858352 3.07076 0.577544 3.79491C0.305624 4.49416 0.119944 5.2939 0.0666161 6.46492C0.0124081 7.63778 0 8.01275 0 11C0 13.9872 0.0124081 14.3622 0.0666161 15.5351C0.119944 16.7062 0.305624 17.5058 0.577544 18.2051C0.858352 18.9284 1.2342 19.5427 1.84633 20.1537C2.45846 20.7647 3.07076 21.1409 3.79491 21.4225C4.49504 21.6944 5.2939 21.8801 6.46492 21.9334C7.6384 21.9867 8.01275 22 11 22C13.9872 22 14.3622 21.9876 15.5351 21.9334C16.7062 21.8801 17.5058 21.6944 18.2051 21.4225C18.9284 21.1409 19.5415 20.7649 20.1537 20.1537C20.7659 19.5424 21.1409 18.9284 21.4225 18.2051C21.6944 17.5058 21.8809 16.7061 21.9334 15.5351C21.9867 14.3613 21.9991 13.9872 21.9991 11C21.9991 8.01275 21.9867 7.63778 21.9334 6.46492C21.8801 5.29382 21.6944 4.49372 21.4225 3.79491C21.1409 3.07164 20.7649 2.45854 20.1537 1.84633C19.5424 1.23411 18.9284 0.858352 18.206 0.577544C17.5058 0.305624 16.7061 0.119064 15.536 0.0666161C14.3629 0.0130241 13.9881 0 11.0013 0C8.01451 0 7.63884 0.0124081 6.46536 0.0666161" fill="#DE3E6D"/>
</g>
<defs>
<clipPath id="clip0_292_127">
<rect width="22" height="22" fill="white"/>
</clipPath>
</defs>
</svg>
