<svg width="22" height="22" viewBox="0 0 22 22" fill="none" xmlns="http://www.w3.org/2000/svg">
<path d="M22 11C22 17.0742 17.0742 22 11 22C4.92584 22 0 17.0742 0 11C0 4.92584 4.92584 0 11 0C17.0742 0 22 4.92584 22 11Z" fill="#CA2127"/>
<path d="M9.96654 2.06461C6.54842 2.42011 3.14413 4.96897 3.00575 8.61788C2.9158 10.8448 3.87758 12.515 6.17478 12.9845C6.43771 11.9314 6.48615 11.3613 6.48615 11.3613C6.48615 11.3613 5.47593 10.4222 5.37214 9.82523C4.52799 5.02263 11.3712 1.74265 14.9623 5.09642C17.4394 7.42393 15.8064 14.5809 11.8071 13.8363C7.97379 13.1253 13.6822 7.43064 10.6239 6.31048C8.13985 5.39826 6.81827 9.09411 7.99455 10.9253C7.30262 14.0778 5.81498 17.0493 6.41695 21C8.37511 19.692 9.03244 17.1834 9.57214 14.5675C10.5547 15.1175 11.0805 15.6943 12.3329 15.7815C16.955 16.1102 19.5359 11.5222 18.9063 7.28307C18.3389 3.52685 14.2842 1.6152 9.96654 2.06461Z" fill="white"/>
</svg>
