<svg width="16" height="21" viewBox="0 0 16 21" fill="none" xmlns="http://www.w3.org/2000/svg">
<path fill-rule="evenodd" clip-rule="evenodd" d="M7.85721 0.284058C3.52075 0.284058 0 3.86186 0 8.2686C0 10.2851 1.18144 12.6826 2.64217 14.8152C4.74147 17.8813 7.36578 20.4095 7.36578 20.4095C7.6415 20.6744 8.07293 20.6744 8.34865 20.4095C8.34865 20.4095 10.973 17.8813 13.0723 14.8152C14.533 12.6826 15.7144 10.2851 15.7144 8.2686C15.7144 3.86186 12.1937 0.284058 7.85721 0.284058ZM7.85721 4.27633C5.68862 4.27633 3.92861 6.06487 3.92861 8.2686C3.92861 10.4723 5.68862 12.2609 7.85721 12.2609C10.0258 12.2609 11.7858 10.4723 11.7858 8.2686C11.7858 6.06487 10.0258 4.27633 7.85721 4.27633ZM7.85721 5.72807C9.23722 5.72807 10.3572 6.86623 10.3572 8.2686C10.3572 9.67098 9.23722 10.8091 7.85721 10.8091C6.4772 10.8091 5.35719 9.67098 5.35719 8.2686C5.35719 6.86623 6.4772 5.72807 7.85721 5.72807Z" fill="white"/>
</svg>
