<svg width="21" height="21" viewBox="0 0 21 21" fill="none" xmlns="http://www.w3.org/2000/svg">
<path fill-rule="evenodd" clip-rule="evenodd" d="M19.446 2.66478L17.5905 0.784334C17.0785 0.26476 16.2474 0.26476 15.7348 0.784334L12.9515 4.5452C12.5266 5.1814 12.4395 5.90605 12.9515 6.42562L14.0875 7.5768C13.2455 8.7234 12.2345 9.97352 11.0965 11.1267C9.80958 12.4305 8.37825 13.6158 7.09133 14.5894L5.99331 13.4775C5.48138 12.958 4.76634 13.0458 4.1377 13.4775L0.426524 16.2982C-0.195661 16.7339 -0.0860535 17.659 0.426524 18.1786L2.28211 20.0584C3.30727 21.0975 4.63998 20.7647 5.99331 20.0584C5.99331 20.0584 10.0894 17.7285 13.5962 14.1747C16.8948 10.8318 19.446 6.42562 19.446 6.42562C19.978 4.9429 20.4712 3.70327 19.446 2.66478Z" fill="white"/>
</svg>
