<svg width="20" height="22" viewBox="0 0 20 22" fill="none" xmlns="http://www.w3.org/2000/svg">
<path d="M13.164 9.58469C13.2187 10.1293 13.25 10.6563 13.25 11.1496C13.25 12.073 13.1402 13.1158 12.9722 14.17C11.9348 14.3407 10.9087 14.4523 10 14.4523C9.09543 14.4523 8.06965 14.341 7.02772 14.1697C6.85982 13.1155 6.75 12.0729 6.75 11.1496C6.75 10.6565 6.78132 10.1294 6.83609 9.58469C7.9296 9.76257 9.02048 9.87939 10 9.87939C10.9796 9.87939 12.0705 9.76257 13.164 9.58469Z" fill="white"/>
<path d="M14.643 9.31024C14.7106 9.94754 14.75 10.568 14.75 11.1497C14.75 11.9983 14.6663 12.9294 14.5332 13.8744C16.4214 13.474 18.1666 12.9625 19.1016 12.6713C19.4037 12.5772 19.5224 12.5397 19.6817 12.475C19.7613 12.4427 19.8343 12.4098 19.9294 12.3636C19.976 11.9655 20 11.5604 20 11.1497C20 10.0638 19.8323 9.01771 19.5221 8.03665L19.4412 8.0625C18.4636 8.36473 16.6335 8.89901 14.643 9.31024Z" fill="white"/>
<path d="M18.9538 6.61977C17.9711 6.92244 16.2655 7.41426 14.4378 7.79717C14.0168 5.19687 13.2789 2.60337 12.9238 1.42889C15.5638 2.24795 17.7401 4.14719 18.9538 6.61977Z" fill="white"/>
<path d="M12.9621 8.07423C11.9274 8.2441 10.9046 8.3551 9.99856 8.3551C9.09256 8.3551 8.06977 8.2441 7.03516 8.07424C7.43161 5.61381 8.13932 3.10041 8.50122 1.90058C8.59379 1.59352 8.63065 1.47291 8.69437 1.31103C8.72618 1.23016 8.75856 1.15599 8.80398 1.05936C9.1957 1.01198 9.59437 0.98761 9.99856 0.98761C10.4208 0.98761 10.8369 1.01421 11.2455 1.06584C11.2542 1.09953 11.2622 1.12968 11.2701 1.1582C11.2935 1.24246 11.3302 1.3609 11.3917 1.55963L11.3982 1.5805C11.7067 2.57699 12.5242 5.35634 12.9621 8.07423Z" fill="white"/>
<path d="M5.56277 7.79715C5.98187 5.20831 6.71498 2.62878 7.06932 1.4539L7.07686 1.42889C4.4368 2.24794 2.26054 4.14718 1.04688 6.61976C2.02957 6.92243 3.73507 7.41424 5.56277 7.79715Z" fill="white"/>
<path d="M0.477943 8.03662C0.1676 9.01769 0 10.0638 0 11.1496C0 11.5744 0.0256476 11.9931 0.0754571 12.4042L0.233057 12.4576L0.234314 12.458L0.235857 12.4586L0.236943 12.4589C0.287667 12.476 1.77433 12.9749 3.73217 13.47C4.28463 13.6096 4.86959 13.7476 5.46672 13.8741C5.33357 12.9293 5.25 11.9983 5.25 11.1496C5.25 10.5678 5.28928 9.94733 5.35688 9.31022C3.36598 8.89886 1.53541 8.36439 0.558067 8.06221L0.551267 8.0601L0.477943 8.03662Z" fill="white"/>
<path d="M10.0015 15.9766C10.8366 15.9766 11.7528 15.8916 12.6827 15.7563C12.2887 17.6751 11.7854 19.4487 11.4988 20.3987C11.4062 20.7058 11.3694 20.8263 11.3057 20.9883C11.2739 21.0692 11.2415 21.1433 11.196 21.24C10.8043 21.2873 10.4057 21.3117 10.0015 21.3117C9.59728 21.3117 9.19862 21.2873 8.8069 21.24C8.76147 21.1433 8.72909 21.0692 8.69728 20.9883C8.63357 20.8264 8.59671 20.7058 8.50414 20.3988C8.21757 19.4488 7.71429 17.6753 7.32031 15.7567C8.24709 15.8916 9.16347 15.9766 10.0015 15.9766Z" fill="white"/>
<path d="M3.36934 14.9492C2.13127 14.6361 1.07681 14.3217 0.433594 14.121C1.40179 17.3439 3.90393 19.8865 7.07537 20.8704L7.06783 20.8454C6.75843 19.8195 6.16026 17.7228 5.73449 15.4839C4.90648 15.3212 4.10145 15.1342 3.36934 14.9492Z" fill="white"/>
<path d="M19.541 14.1287C18.5314 14.4431 16.4679 15.051 14.2647 15.4836C13.839 17.7226 13.2408 19.8194 12.9314 20.8454L12.9238 20.8704C16.0953 19.8865 18.5974 17.3439 19.5655 14.121L19.541 14.1287Z" fill="white"/>
<path d="M0.105469 12.4301C0.140088 12.4346 0.168307 12.4393 0.177669 12.4414C0.185869 12.4434 0.198716 12.4468 0.203374 12.4481L0.213669 12.451L0.219212 12.4528L0.22504 12.4546L0.229926 12.4561C0.227183 12.4552 0.171621 12.4413 0.105469 12.4301Z" fill="white"/>
</svg>
