<svg width="13" height="15" viewBox="0 0 13 15" fill="none" xmlns="http://www.w3.org/2000/svg">
<path d="M6.13266 0C4.54547 1.66875 2.23453 1.9282 0.950156 1.9282C0.370078 1.9282 0 1.87523 0 1.87523C0 1.87523 0 4.57055 0 8.43773C0 12.3049 6.13266 15 6.13266 15C6.13266 15 12.2653 12.3047 12.2653 8.4375C12.2653 4.57031 12.2653 1.875 12.2653 1.875C12.2653 1.875 11.8952 1.92797 11.3152 1.92797C10.0308 1.9282 7.72078 1.66875 6.13266 0Z" fill="#ED81B3"/>
<path d="M8.56124 4.38037L5.06568 8.39847L3.59665 7.04675L2.62817 8.04111L5.17908 10.3879L9.63692 5.26421L8.56124 4.38037Z" fill="white"/>
</svg>
