<svg width="20" height="20" viewBox="0 0 20 20" fill="none" xmlns="http://www.w3.org/2000/svg">
<path d="M1.66661 18.75C1.58421 18.75 1.50366 18.7256 1.43515 18.6798C1.36664 18.634 1.31325 18.5689 1.28171 18.4928C1.25018 18.4167 1.24193 18.3329 1.258 18.2521C1.27408 18.1713 1.31375 18.097 1.37201 18.0388L18.0387 1.37209C18.1173 1.29619 18.2225 1.25419 18.3318 1.25514C18.441 1.25609 18.5455 1.29991 18.6228 1.37717C18.7 1.45442 18.7438 1.55892 18.7448 1.66817C18.7457 1.77742 18.7037 1.88267 18.6278 1.96126L1.96118 18.6279C1.92254 18.6667 1.87663 18.6974 1.82608 18.7184C1.77553 18.7393 1.72133 18.7501 1.66661 18.75Z" fill="#707070"/>
<path d="M18.3334 18.75C18.2786 18.7501 18.2244 18.7393 18.1739 18.7184C18.1233 18.6974 18.0774 18.6667 18.0388 18.6279L1.37209 1.96126C1.29619 1.88267 1.25419 1.77742 1.25514 1.66817C1.25609 1.55892 1.29991 1.45442 1.37717 1.37717C1.45442 1.29991 1.55892 1.25609 1.66817 1.25514C1.77742 1.25419 1.88267 1.29619 1.96126 1.37209L18.6279 18.0388C18.6862 18.097 18.7258 18.1713 18.7419 18.2521C18.758 18.3329 18.7497 18.4166 18.7182 18.4928C18.6867 18.5689 18.6333 18.6339 18.5648 18.6797C18.4963 18.7255 18.4157 18.75 18.3334 18.75Z" fill="#707070"/>
</svg>
