<svg width="25" height="25" viewBox="0 0 25 25" fill="none" xmlns="http://www.w3.org/2000/svg">
<path fill-rule="evenodd" clip-rule="evenodd" d="M12.5739 24.9996C15.7924 24.9689 18.9786 23.6368 21.2699 21.3747C23.9914 18.6875 25.3926 14.7124 24.904 10.9174C24.0661 4.41326 18.7149 0 12.4935 0C7.7673 0 3.17316 2.95414 1.158 7.23782C-0.384694 10.5172 -0.387304 14.4767 1.158 17.7623C3.15854 22.0158 7.6775 24.9543 12.4131 24.9996C12.4669 25.0001 12.5201 25.0001 12.5739 24.9996ZM12.4267 22.9166C7.61955 22.8703 3.13452 19.1559 2.24232 14.394C1.61376 11.0365 2.80093 7.40382 5.27289 5.01949C8.15989 2.23551 12.6966 1.30249 16.4685 2.88077C19.8442 4.29305 22.3699 7.57138 22.8356 11.1833C23.2344 14.279 22.1224 17.5235 19.9376 19.759C18.0206 21.7192 15.333 22.8895 12.5603 22.9166C12.516 22.9166 12.4711 22.9166 12.4267 22.9166ZM5.96253 17.562L11.0443 12.4967L5.95731 7.4262L7.42117 5.9676L12.5081 11.0381L17.7695 5.7938L19.2354 7.25448L13.9741 12.4993L19.2459 17.754L17.7825 19.2131L12.5102 13.9579L7.42848 19.0232L5.96253 17.562Z" fill="white"/>
</svg>
