<svg width="26" height="25" viewBox="0 0 26 25" fill="none" xmlns="http://www.w3.org/2000/svg">
<path fill-rule="evenodd" clip-rule="evenodd" d="M13.4166 0C6.51309 0 0.916626 5.59646 0.916626 12.5C0.916626 19.4035 6.51309 25 13.4166 25C20.3202 25 25.9166 19.4035 25.9166 12.5C25.9166 5.59646 20.3202 0 13.4166 0ZM13.4166 22.5C7.90264 22.5 3.41663 18.014 3.41663 12.5C3.41663 6.98601 7.90264 2.5 13.4166 2.5C18.9306 2.5 23.4166 6.98601 23.4166 12.5C23.4166 18.014 18.9306 22.5 13.4166 22.5ZM18.1238 8.03405L19.8914 9.80163L12.1666 17.5587L7.53284 12.9249L9.30041 11.1574L12.1666 14.0236L18.1238 8.03405Z" fill="white"/>
</svg>
