<svg width="25" height="25" viewBox="0 0 25 25" fill="none" xmlns="http://www.w3.org/2000/svg">
<path d="M12.5 0C10.0277 0 7.61099 0.733112 5.55538 2.10663C3.49976 3.48015 1.89761 5.43238 0.951511 7.71645C0.0054161 10.0005 -0.242126 12.5139 0.24019 14.9386C0.722505 17.3634 1.91301 19.5907 3.66117 21.3388C5.40933 23.087 7.63661 24.2775 10.0614 24.7598C12.4861 25.2421 14.9995 24.9946 17.2835 24.0485C19.5676 23.1024 21.5199 21.5002 22.8934 19.4446C24.2669 17.389 25 14.9723 25 12.5C24.9961 9.18599 23.6779 6.00884 21.3345 3.66548C18.9912 1.32213 15.814 0.00390963 12.5 0ZM12.5 22.7273C10.4772 22.7273 8.4999 22.1274 6.81804 21.0037C5.13617 19.8799 3.82532 18.2826 3.05124 16.4138C2.27716 14.545 2.07463 12.4887 2.46925 10.5048C2.86387 8.52086 3.83792 6.69853 5.26823 5.26822C6.69854 3.83792 8.52087 2.86386 10.5048 2.46924C12.4887 2.07462 14.545 2.27715 16.4138 3.05123C18.2826 3.82531 19.8799 5.13616 21.0037 6.81803C22.1275 8.4999 22.7273 10.4772 22.7273 12.5C22.724 15.2114 21.6454 17.8108 19.7281 19.7281C17.8109 21.6454 15.2114 22.724 12.5 22.7273ZM13.6364 19.3182H11.3636V17.0455H13.6364V19.3182ZM13.6364 14.7727H11.3636V5.68182H13.6364V14.7727Z" fill="white"/>
</svg>
